<mxfile host="app.diagrams.net" agent="Mozilla/5.0 (Windows NT 10.0; Win64; x64) AppleWebKit/537.36 (KHTML, like Gecko) Chrome/138.0.0.0 Safari/537.36" version="28.0.6">
  <diagram name="Page-1" id="JdXtO4GfWfk_o97UeFdz">
    <mxGraphModel dx="1690" dy="924" grid="0" gridSize="10" guides="1" tooltips="1" connect="1" arrows="1" fold="1" page="1" pageScale="1" pageWidth="850" pageHeight="1100" math="0" shadow="0">
      <root>
        <mxCell id="0" />
        <mxCell id="1" parent="0" />
        <mxCell id="jWEvUl2-FtW43oLGLAhN-1" value="Tenant" style="shape=table;startSize=30;container=1;collapsible=1;childLayout=tableLayout;fixedRows=1;rowLines=0;fontStyle=1;align=center;resizeLast=1;fillColor=#e1d5e7;strokeColor=#9673a6;" parent="1" vertex="1">
          <mxGeometry x="550" y="90" width="329" height="630" as="geometry" />
        </mxCell>
        <mxCell id="jWEvUl2-FtW43oLGLAhN-2" value="" style="shape=tableRow;horizontal=0;startSize=0;swimlaneHead=0;swimlaneBody=0;fillColor=none;collapsible=0;dropTarget=0;points=[[0,0.5],[1,0.5]];portConstraint=eastwest;top=0;left=0;right=0;bottom=1;" parent="jWEvUl2-FtW43oLGLAhN-1" vertex="1">
          <mxGeometry y="30" width="329" height="30" as="geometry" />
        </mxCell>
        <mxCell id="jWEvUl2-FtW43oLGLAhN-3" value="PK" style="shape=partialRectangle;connectable=0;fillColor=none;top=0;left=0;bottom=0;right=0;fontStyle=1;overflow=hidden;" parent="jWEvUl2-FtW43oLGLAhN-2" vertex="1">
          <mxGeometry width="30" height="30" as="geometry">
            <mxRectangle width="30" height="30" as="alternateBounds" />
          </mxGeometry>
        </mxCell>
        <mxCell id="jWEvUl2-FtW43oLGLAhN-4" value="id : Int" style="shape=partialRectangle;connectable=0;fillColor=none;top=0;left=0;bottom=0;right=0;align=left;spacingLeft=6;fontStyle=5;overflow=hidden;" parent="jWEvUl2-FtW43oLGLAhN-2" vertex="1">
          <mxGeometry x="30" width="299" height="30" as="geometry">
            <mxRectangle width="299" height="30" as="alternateBounds" />
          </mxGeometry>
        </mxCell>
        <mxCell id="jWEvUl2-FtW43oLGLAhN-5" value="" style="shape=tableRow;horizontal=0;startSize=0;swimlaneHead=0;swimlaneBody=0;fillColor=none;collapsible=0;dropTarget=0;points=[[0,0.5],[1,0.5]];portConstraint=eastwest;top=0;left=0;right=0;bottom=0;" parent="jWEvUl2-FtW43oLGLAhN-1" vertex="1">
          <mxGeometry y="60" width="329" height="30" as="geometry" />
        </mxCell>
        <mxCell id="jWEvUl2-FtW43oLGLAhN-6" value="" style="shape=partialRectangle;connectable=0;fillColor=none;top=0;left=0;bottom=0;right=0;editable=1;overflow=hidden;" parent="jWEvUl2-FtW43oLGLAhN-5" vertex="1">
          <mxGeometry width="30" height="30" as="geometry">
            <mxRectangle width="30" height="30" as="alternateBounds" />
          </mxGeometry>
        </mxCell>
        <mxCell id="jWEvUl2-FtW43oLGLAhN-7" value="company_contact : string" style="shape=partialRectangle;connectable=0;fillColor=none;top=0;left=0;bottom=0;right=0;align=left;spacingLeft=6;overflow=hidden;" parent="jWEvUl2-FtW43oLGLAhN-5" vertex="1">
          <mxGeometry x="30" width="299" height="30" as="geometry">
            <mxRectangle width="299" height="30" as="alternateBounds" />
          </mxGeometry>
        </mxCell>
        <mxCell id="jWEvUl2-FtW43oLGLAhN-8" value="" style="shape=tableRow;horizontal=0;startSize=0;swimlaneHead=0;swimlaneBody=0;fillColor=none;collapsible=0;dropTarget=0;points=[[0,0.5],[1,0.5]];portConstraint=eastwest;top=0;left=0;right=0;bottom=0;" parent="jWEvUl2-FtW43oLGLAhN-1" vertex="1">
          <mxGeometry y="90" width="329" height="30" as="geometry" />
        </mxCell>
        <mxCell id="jWEvUl2-FtW43oLGLAhN-9" value="" style="shape=partialRectangle;connectable=0;fillColor=none;top=0;left=0;bottom=0;right=0;editable=1;overflow=hidden;" parent="jWEvUl2-FtW43oLGLAhN-8" vertex="1">
          <mxGeometry width="30" height="30" as="geometry">
            <mxRectangle width="30" height="30" as="alternateBounds" />
          </mxGeometry>
        </mxCell>
        <mxCell id="jWEvUl2-FtW43oLGLAhN-10" value="company_name : string" style="shape=partialRectangle;connectable=0;fillColor=none;top=0;left=0;bottom=0;right=0;align=left;spacingLeft=6;overflow=hidden;" parent="jWEvUl2-FtW43oLGLAhN-8" vertex="1">
          <mxGeometry x="30" width="299" height="30" as="geometry">
            <mxRectangle width="299" height="30" as="alternateBounds" />
          </mxGeometry>
        </mxCell>
        <mxCell id="jWEvUl2-FtW43oLGLAhN-11" value="" style="shape=tableRow;horizontal=0;startSize=0;swimlaneHead=0;swimlaneBody=0;fillColor=none;collapsible=0;dropTarget=0;points=[[0,0.5],[1,0.5]];portConstraint=eastwest;top=0;left=0;right=0;bottom=0;" parent="jWEvUl2-FtW43oLGLAhN-1" vertex="1">
          <mxGeometry y="120" width="329" height="30" as="geometry" />
        </mxCell>
        <mxCell id="jWEvUl2-FtW43oLGLAhN-12" value="" style="shape=partialRectangle;connectable=0;fillColor=none;top=0;left=0;bottom=0;right=0;editable=1;overflow=hidden;" parent="jWEvUl2-FtW43oLGLAhN-11" vertex="1">
          <mxGeometry width="30" height="30" as="geometry">
            <mxRectangle width="30" height="30" as="alternateBounds" />
          </mxGeometry>
        </mxCell>
        <mxCell id="jWEvUl2-FtW43oLGLAhN-13" value="company_address : string" style="shape=partialRectangle;connectable=0;fillColor=none;top=0;left=0;bottom=0;right=0;align=left;spacingLeft=6;overflow=hidden;" parent="jWEvUl2-FtW43oLGLAhN-11" vertex="1">
          <mxGeometry x="30" width="299" height="30" as="geometry">
            <mxRectangle width="299" height="30" as="alternateBounds" />
          </mxGeometry>
        </mxCell>
        <mxCell id="jWEvUl2-FtW43oLGLAhN-14" value="" style="shape=tableRow;horizontal=0;startSize=0;swimlaneHead=0;swimlaneBody=0;fillColor=none;collapsible=0;dropTarget=0;points=[[0,0.5],[1,0.5]];portConstraint=eastwest;top=0;left=0;right=0;bottom=0;" parent="jWEvUl2-FtW43oLGLAhN-1" vertex="1">
          <mxGeometry y="150" width="329" height="30" as="geometry" />
        </mxCell>
        <mxCell id="jWEvUl2-FtW43oLGLAhN-15" value="" style="shape=partialRectangle;connectable=0;fillColor=none;top=0;left=0;bottom=0;right=0;editable=1;overflow=hidden;" parent="jWEvUl2-FtW43oLGLAhN-14" vertex="1">
          <mxGeometry width="30" height="30" as="geometry">
            <mxRectangle width="30" height="30" as="alternateBounds" />
          </mxGeometry>
        </mxCell>
        <mxCell id="jWEvUl2-FtW43oLGLAhN-16" value="company_address2 : string" style="shape=partialRectangle;connectable=0;fillColor=none;top=0;left=0;bottom=0;right=0;align=left;spacingLeft=6;overflow=hidden;" parent="jWEvUl2-FtW43oLGLAhN-14" vertex="1">
          <mxGeometry x="30" width="299" height="30" as="geometry">
            <mxRectangle width="299" height="30" as="alternateBounds" />
          </mxGeometry>
        </mxCell>
        <mxCell id="jWEvUl2-FtW43oLGLAhN-17" value="" style="shape=tableRow;horizontal=0;startSize=0;swimlaneHead=0;swimlaneBody=0;fillColor=none;collapsible=0;dropTarget=0;points=[[0,0.5],[1,0.5]];portConstraint=eastwest;top=0;left=0;right=0;bottom=0;" parent="jWEvUl2-FtW43oLGLAhN-1" vertex="1">
          <mxGeometry y="180" width="329" height="30" as="geometry" />
        </mxCell>
        <mxCell id="jWEvUl2-FtW43oLGLAhN-18" value="" style="shape=partialRectangle;connectable=0;fillColor=none;top=0;left=0;bottom=0;right=0;editable=1;overflow=hidden;" parent="jWEvUl2-FtW43oLGLAhN-17" vertex="1">
          <mxGeometry width="30" height="30" as="geometry">
            <mxRectangle width="30" height="30" as="alternateBounds" />
          </mxGeometry>
        </mxCell>
        <mxCell id="jWEvUl2-FtW43oLGLAhN-19" value="company_city : string" style="shape=partialRectangle;connectable=0;fillColor=none;top=0;left=0;bottom=0;right=0;align=left;spacingLeft=6;overflow=hidden;" parent="jWEvUl2-FtW43oLGLAhN-17" vertex="1">
          <mxGeometry x="30" width="299" height="30" as="geometry">
            <mxRectangle width="299" height="30" as="alternateBounds" />
          </mxGeometry>
        </mxCell>
        <mxCell id="jWEvUl2-FtW43oLGLAhN-20" value="" style="shape=tableRow;horizontal=0;startSize=0;swimlaneHead=0;swimlaneBody=0;fillColor=none;collapsible=0;dropTarget=0;points=[[0,0.5],[1,0.5]];portConstraint=eastwest;top=0;left=0;right=0;bottom=0;" parent="jWEvUl2-FtW43oLGLAhN-1" vertex="1">
          <mxGeometry y="210" width="329" height="30" as="geometry" />
        </mxCell>
        <mxCell id="jWEvUl2-FtW43oLGLAhN-21" value="" style="shape=partialRectangle;connectable=0;fillColor=none;top=0;left=0;bottom=0;right=0;editable=1;overflow=hidden;" parent="jWEvUl2-FtW43oLGLAhN-20" vertex="1">
          <mxGeometry width="30" height="30" as="geometry">
            <mxRectangle width="30" height="30" as="alternateBounds" />
          </mxGeometry>
        </mxCell>
        <mxCell id="jWEvUl2-FtW43oLGLAhN-22" value="company_state : string" style="shape=partialRectangle;connectable=0;fillColor=none;top=0;left=0;bottom=0;right=0;align=left;spacingLeft=6;overflow=hidden;" parent="jWEvUl2-FtW43oLGLAhN-20" vertex="1">
          <mxGeometry x="30" width="299" height="30" as="geometry">
            <mxRectangle width="299" height="30" as="alternateBounds" />
          </mxGeometry>
        </mxCell>
        <mxCell id="jWEvUl2-FtW43oLGLAhN-23" value="" style="shape=tableRow;horizontal=0;startSize=0;swimlaneHead=0;swimlaneBody=0;fillColor=none;collapsible=0;dropTarget=0;points=[[0,0.5],[1,0.5]];portConstraint=eastwest;top=0;left=0;right=0;bottom=0;" parent="jWEvUl2-FtW43oLGLAhN-1" vertex="1">
          <mxGeometry y="240" width="329" height="30" as="geometry" />
        </mxCell>
        <mxCell id="jWEvUl2-FtW43oLGLAhN-24" value="" style="shape=partialRectangle;connectable=0;fillColor=none;top=0;left=0;bottom=0;right=0;editable=1;overflow=hidden;" parent="jWEvUl2-FtW43oLGLAhN-23" vertex="1">
          <mxGeometry width="30" height="30" as="geometry">
            <mxRectangle width="30" height="30" as="alternateBounds" />
          </mxGeometry>
        </mxCell>
        <mxCell id="jWEvUl2-FtW43oLGLAhN-25" value="company_zip : string" style="shape=partialRectangle;connectable=0;fillColor=none;top=0;left=0;bottom=0;right=0;align=left;spacingLeft=6;overflow=hidden;" parent="jWEvUl2-FtW43oLGLAhN-23" vertex="1">
          <mxGeometry x="30" width="299" height="30" as="geometry">
            <mxRectangle width="299" height="30" as="alternateBounds" />
          </mxGeometry>
        </mxCell>
        <mxCell id="jWEvUl2-FtW43oLGLAhN-26" value="" style="shape=tableRow;horizontal=0;startSize=0;swimlaneHead=0;swimlaneBody=0;fillColor=none;collapsible=0;dropTarget=0;points=[[0,0.5],[1,0.5]];portConstraint=eastwest;top=0;left=0;right=0;bottom=0;" parent="jWEvUl2-FtW43oLGLAhN-1" vertex="1">
          <mxGeometry y="270" width="329" height="30" as="geometry" />
        </mxCell>
        <mxCell id="jWEvUl2-FtW43oLGLAhN-27" value="" style="shape=partialRectangle;connectable=0;fillColor=none;top=0;left=0;bottom=0;right=0;editable=1;overflow=hidden;" parent="jWEvUl2-FtW43oLGLAhN-26" vertex="1">
          <mxGeometry width="30" height="30" as="geometry">
            <mxRectangle width="30" height="30" as="alternateBounds" />
          </mxGeometry>
        </mxCell>
        <mxCell id="jWEvUl2-FtW43oLGLAhN-28" value="company_country : string" style="shape=partialRectangle;connectable=0;fillColor=none;top=0;left=0;bottom=0;right=0;align=left;spacingLeft=6;overflow=hidden;" parent="jWEvUl2-FtW43oLGLAhN-26" vertex="1">
          <mxGeometry x="30" width="299" height="30" as="geometry">
            <mxRectangle width="299" height="30" as="alternateBounds" />
          </mxGeometry>
        </mxCell>
        <mxCell id="jWEvUl2-FtW43oLGLAhN-29" value="" style="shape=tableRow;horizontal=0;startSize=0;swimlaneHead=0;swimlaneBody=0;fillColor=none;collapsible=0;dropTarget=0;points=[[0,0.5],[1,0.5]];portConstraint=eastwest;top=0;left=0;right=0;bottom=0;" parent="jWEvUl2-FtW43oLGLAhN-1" vertex="1">
          <mxGeometry y="300" width="329" height="30" as="geometry" />
        </mxCell>
        <mxCell id="jWEvUl2-FtW43oLGLAhN-30" value="" style="shape=partialRectangle;connectable=0;fillColor=none;top=0;left=0;bottom=0;right=0;editable=1;overflow=hidden;" parent="jWEvUl2-FtW43oLGLAhN-29" vertex="1">
          <mxGeometry width="30" height="30" as="geometry">
            <mxRectangle width="30" height="30" as="alternateBounds" />
          </mxGeometry>
        </mxCell>
        <mxCell id="jWEvUl2-FtW43oLGLAhN-31" value="company_phone : string" style="shape=partialRectangle;connectable=0;fillColor=none;top=0;left=0;bottom=0;right=0;align=left;spacingLeft=6;overflow=hidden;" parent="jWEvUl2-FtW43oLGLAhN-29" vertex="1">
          <mxGeometry x="30" width="299" height="30" as="geometry">
            <mxRectangle width="299" height="30" as="alternateBounds" />
          </mxGeometry>
        </mxCell>
        <mxCell id="jWEvUl2-FtW43oLGLAhN-32" value="" style="shape=tableRow;horizontal=0;startSize=0;swimlaneHead=0;swimlaneBody=0;fillColor=none;collapsible=0;dropTarget=0;points=[[0,0.5],[1,0.5]];portConstraint=eastwest;top=0;left=0;right=0;bottom=0;" parent="jWEvUl2-FtW43oLGLAhN-1" vertex="1">
          <mxGeometry y="330" width="329" height="30" as="geometry" />
        </mxCell>
        <mxCell id="jWEvUl2-FtW43oLGLAhN-33" value="" style="shape=partialRectangle;connectable=0;fillColor=none;top=0;left=0;bottom=0;right=0;editable=1;overflow=hidden;" parent="jWEvUl2-FtW43oLGLAhN-32" vertex="1">
          <mxGeometry width="30" height="30" as="geometry">
            <mxRectangle width="30" height="30" as="alternateBounds" />
          </mxGeometry>
        </mxCell>
        <mxCell id="jWEvUl2-FtW43oLGLAhN-34" value="company_email : string" style="shape=partialRectangle;connectable=0;fillColor=none;top=0;left=0;bottom=0;right=0;align=left;spacingLeft=6;overflow=hidden;" parent="jWEvUl2-FtW43oLGLAhN-32" vertex="1">
          <mxGeometry x="30" width="299" height="30" as="geometry">
            <mxRectangle width="299" height="30" as="alternateBounds" />
          </mxGeometry>
        </mxCell>
        <mxCell id="jWEvUl2-FtW43oLGLAhN-35" value="" style="shape=tableRow;horizontal=0;startSize=0;swimlaneHead=0;swimlaneBody=0;fillColor=none;collapsible=0;dropTarget=0;points=[[0,0.5],[1,0.5]];portConstraint=eastwest;top=0;left=0;right=0;bottom=0;" parent="jWEvUl2-FtW43oLGLAhN-1" vertex="1">
          <mxGeometry y="360" width="329" height="30" as="geometry" />
        </mxCell>
        <mxCell id="jWEvUl2-FtW43oLGLAhN-36" value="" style="shape=partialRectangle;connectable=0;fillColor=none;top=0;left=0;bottom=0;right=0;editable=1;overflow=hidden;" parent="jWEvUl2-FtW43oLGLAhN-35" vertex="1">
          <mxGeometry width="30" height="30" as="geometry">
            <mxRectangle width="30" height="30" as="alternateBounds" />
          </mxGeometry>
        </mxCell>
        <mxCell id="jWEvUl2-FtW43oLGLAhN-37" value="company_website : string" style="shape=partialRectangle;connectable=0;fillColor=none;top=0;left=0;bottom=0;right=0;align=left;spacingLeft=6;overflow=hidden;" parent="jWEvUl2-FtW43oLGLAhN-35" vertex="1">
          <mxGeometry x="30" width="299" height="30" as="geometry">
            <mxRectangle width="299" height="30" as="alternateBounds" />
          </mxGeometry>
        </mxCell>
        <mxCell id="jWEvUl2-FtW43oLGLAhN-38" value="" style="shape=tableRow;horizontal=0;startSize=0;swimlaneHead=0;swimlaneBody=0;fillColor=none;collapsible=0;dropTarget=0;points=[[0,0.5],[1,0.5]];portConstraint=eastwest;top=0;left=0;right=0;bottom=0;" parent="jWEvUl2-FtW43oLGLAhN-1" vertex="1">
          <mxGeometry y="390" width="329" height="30" as="geometry" />
        </mxCell>
        <mxCell id="jWEvUl2-FtW43oLGLAhN-39" value="" style="shape=partialRectangle;connectable=0;fillColor=none;top=0;left=0;bottom=0;right=0;editable=1;overflow=hidden;" parent="jWEvUl2-FtW43oLGLAhN-38" vertex="1">
          <mxGeometry width="30" height="30" as="geometry">
            <mxRectangle width="30" height="30" as="alternateBounds" />
          </mxGeometry>
        </mxCell>
        <mxCell id="jWEvUl2-FtW43oLGLAhN-40" value="registration_date : datetime" style="shape=partialRectangle;connectable=0;fillColor=none;top=0;left=0;bottom=0;right=0;align=left;spacingLeft=6;overflow=hidden;" parent="jWEvUl2-FtW43oLGLAhN-38" vertex="1">
          <mxGeometry x="30" width="299" height="30" as="geometry">
            <mxRectangle width="299" height="30" as="alternateBounds" />
          </mxGeometry>
        </mxCell>
        <mxCell id="jWEvUl2-FtW43oLGLAhN-41" value="" style="shape=tableRow;horizontal=0;startSize=0;swimlaneHead=0;swimlaneBody=0;fillColor=none;collapsible=0;dropTarget=0;points=[[0,0.5],[1,0.5]];portConstraint=eastwest;top=0;left=0;right=0;bottom=0;" parent="jWEvUl2-FtW43oLGLAhN-1" vertex="1">
          <mxGeometry y="420" width="329" height="30" as="geometry" />
        </mxCell>
        <mxCell id="jWEvUl2-FtW43oLGLAhN-42" value="" style="shape=partialRectangle;connectable=0;fillColor=none;top=0;left=0;bottom=0;right=0;editable=1;overflow=hidden;" parent="jWEvUl2-FtW43oLGLAhN-41" vertex="1">
          <mxGeometry width="30" height="30" as="geometry">
            <mxRectangle width="30" height="30" as="alternateBounds" />
          </mxGeometry>
        </mxCell>
        <mxCell id="jWEvUl2-FtW43oLGLAhN-43" value="database_url : string" style="shape=partialRectangle;connectable=0;fillColor=none;top=0;left=0;bottom=0;right=0;align=left;spacingLeft=6;overflow=hidden;" parent="jWEvUl2-FtW43oLGLAhN-41" vertex="1">
          <mxGeometry x="30" width="299" height="30" as="geometry">
            <mxRectangle width="299" height="30" as="alternateBounds" />
          </mxGeometry>
        </mxCell>
        <mxCell id="jWEvUl2-FtW43oLGLAhN-44" value="" style="shape=tableRow;horizontal=0;startSize=0;swimlaneHead=0;swimlaneBody=0;fillColor=none;collapsible=0;dropTarget=0;points=[[0,0.5],[1,0.5]];portConstraint=eastwest;top=0;left=0;right=0;bottom=0;" parent="jWEvUl2-FtW43oLGLAhN-1" vertex="1">
          <mxGeometry y="450" width="329" height="30" as="geometry" />
        </mxCell>
        <mxCell id="jWEvUl2-FtW43oLGLAhN-45" value="" style="shape=partialRectangle;connectable=0;fillColor=none;top=0;left=0;bottom=0;right=0;editable=1;overflow=hidden;" parent="jWEvUl2-FtW43oLGLAhN-44" vertex="1">
          <mxGeometry width="30" height="30" as="geometry">
            <mxRectangle width="30" height="30" as="alternateBounds" />
          </mxGeometry>
        </mxCell>
        <mxCell id="jWEvUl2-FtW43oLGLAhN-46" value="database_name : string" style="shape=partialRectangle;connectable=0;fillColor=none;top=0;left=0;bottom=0;right=0;align=left;spacingLeft=6;overflow=hidden;" parent="jWEvUl2-FtW43oLGLAhN-44" vertex="1">
          <mxGeometry x="30" width="299" height="30" as="geometry">
            <mxRectangle width="299" height="30" as="alternateBounds" />
          </mxGeometry>
        </mxCell>
        <mxCell id="jWEvUl2-FtW43oLGLAhN-47" value="" style="shape=tableRow;horizontal=0;startSize=0;swimlaneHead=0;swimlaneBody=0;fillColor=none;collapsible=0;dropTarget=0;points=[[0,0.5],[1,0.5]];portConstraint=eastwest;top=0;left=0;right=0;bottom=0;" parent="jWEvUl2-FtW43oLGLAhN-1" vertex="1">
          <mxGeometry y="480" width="329" height="30" as="geometry" />
        </mxCell>
        <mxCell id="jWEvUl2-FtW43oLGLAhN-48" value="" style="shape=partialRectangle;connectable=0;fillColor=none;top=0;left=0;bottom=0;right=0;editable=1;overflow=hidden;" parent="jWEvUl2-FtW43oLGLAhN-47" vertex="1">
          <mxGeometry width="30" height="30" as="geometry">
            <mxRectangle width="30" height="30" as="alternateBounds" />
          </mxGeometry>
        </mxCell>
        <mxCell id="jWEvUl2-FtW43oLGLAhN-49" value="database_user : string" style="shape=partialRectangle;connectable=0;fillColor=none;top=0;left=0;bottom=0;right=0;align=left;spacingLeft=6;overflow=hidden;" parent="jWEvUl2-FtW43oLGLAhN-47" vertex="1">
          <mxGeometry x="30" width="299" height="30" as="geometry">
            <mxRectangle width="299" height="30" as="alternateBounds" />
          </mxGeometry>
        </mxCell>
        <mxCell id="jWEvUl2-FtW43oLGLAhN-50" value="" style="shape=tableRow;horizontal=0;startSize=0;swimlaneHead=0;swimlaneBody=0;fillColor=none;collapsible=0;dropTarget=0;points=[[0,0.5],[1,0.5]];portConstraint=eastwest;top=0;left=0;right=0;bottom=0;" parent="jWEvUl2-FtW43oLGLAhN-1" vertex="1">
          <mxGeometry y="510" width="329" height="30" as="geometry" />
        </mxCell>
        <mxCell id="jWEvUl2-FtW43oLGLAhN-51" value="" style="shape=partialRectangle;connectable=0;fillColor=none;top=0;left=0;bottom=0;right=0;editable=1;overflow=hidden;" parent="jWEvUl2-FtW43oLGLAhN-50" vertex="1">
          <mxGeometry width="30" height="30" as="geometry">
            <mxRectangle width="30" height="30" as="alternateBounds" />
          </mxGeometry>
        </mxCell>
        <mxCell id="jWEvUl2-FtW43oLGLAhN-52" value="database_password : string" style="shape=partialRectangle;connectable=0;fillColor=none;top=0;left=0;bottom=0;right=0;align=left;spacingLeft=6;overflow=hidden;" parent="jWEvUl2-FtW43oLGLAhN-50" vertex="1">
          <mxGeometry x="30" width="299" height="30" as="geometry">
            <mxRectangle width="299" height="30" as="alternateBounds" />
          </mxGeometry>
        </mxCell>
        <mxCell id="jWEvUl2-FtW43oLGLAhN-53" value="" style="shape=tableRow;horizontal=0;startSize=0;swimlaneHead=0;swimlaneBody=0;fillColor=none;collapsible=0;dropTarget=0;points=[[0,0.5],[1,0.5]];portConstraint=eastwest;top=0;left=0;right=0;bottom=0;" parent="jWEvUl2-FtW43oLGLAhN-1" vertex="1">
          <mxGeometry y="540" width="329" height="30" as="geometry" />
        </mxCell>
        <mxCell id="jWEvUl2-FtW43oLGLAhN-54" value="" style="shape=partialRectangle;connectable=0;fillColor=none;top=0;left=0;bottom=0;right=0;editable=1;overflow=hidden;" parent="jWEvUl2-FtW43oLGLAhN-53" vertex="1">
          <mxGeometry width="30" height="30" as="geometry">
            <mxRectangle width="30" height="30" as="alternateBounds" />
          </mxGeometry>
        </mxCell>
        <mxCell id="jWEvUl2-FtW43oLGLAhN-55" value="storage_url : string" style="shape=partialRectangle;connectable=0;fillColor=none;top=0;left=0;bottom=0;right=0;align=left;spacingLeft=6;overflow=hidden;" parent="jWEvUl2-FtW43oLGLAhN-53" vertex="1">
          <mxGeometry x="30" width="299" height="30" as="geometry">
            <mxRectangle width="299" height="30" as="alternateBounds" />
          </mxGeometry>
        </mxCell>
        <mxCell id="jWEvUl2-FtW43oLGLAhN-56" value="" style="shape=tableRow;horizontal=0;startSize=0;swimlaneHead=0;swimlaneBody=0;fillColor=none;collapsible=0;dropTarget=0;points=[[0,0.5],[1,0.5]];portConstraint=eastwest;top=0;left=0;right=0;bottom=0;" parent="jWEvUl2-FtW43oLGLAhN-1" vertex="1">
          <mxGeometry y="570" width="329" height="30" as="geometry" />
        </mxCell>
        <mxCell id="jWEvUl2-FtW43oLGLAhN-57" value="" style="shape=partialRectangle;connectable=0;fillColor=none;top=0;left=0;bottom=0;right=0;editable=1;overflow=hidden;" parent="jWEvUl2-FtW43oLGLAhN-56" vertex="1">
          <mxGeometry width="30" height="30" as="geometry">
            <mxRectangle width="30" height="30" as="alternateBounds" />
          </mxGeometry>
        </mxCell>
        <mxCell id="jWEvUl2-FtW43oLGLAhN-58" value="active_users : int" style="shape=partialRectangle;connectable=0;fillColor=none;top=0;left=0;bottom=0;right=0;align=left;spacingLeft=6;overflow=hidden;" parent="jWEvUl2-FtW43oLGLAhN-56" vertex="1">
          <mxGeometry x="30" width="299" height="30" as="geometry">
            <mxRectangle width="299" height="30" as="alternateBounds" />
          </mxGeometry>
        </mxCell>
        <mxCell id="jWEvUl2-FtW43oLGLAhN-59" value="" style="shape=tableRow;horizontal=0;startSize=0;swimlaneHead=0;swimlaneBody=0;fillColor=none;collapsible=0;dropTarget=0;points=[[0,0.5],[1,0.5]];portConstraint=eastwest;top=0;left=0;right=0;bottom=0;" parent="jWEvUl2-FtW43oLGLAhN-1" vertex="1">
          <mxGeometry y="600" width="329" height="30" as="geometry" />
        </mxCell>
        <mxCell id="jWEvUl2-FtW43oLGLAhN-60" value="" style="shape=partialRectangle;connectable=0;fillColor=none;top=0;left=0;bottom=0;right=0;editable=1;overflow=hidden;" parent="jWEvUl2-FtW43oLGLAhN-59" vertex="1">
          <mxGeometry width="30" height="30" as="geometry">
            <mxRectangle width="30" height="30" as="alternateBounds" />
          </mxGeometry>
        </mxCell>
        <mxCell id="jWEvUl2-FtW43oLGLAhN-61" value="active : int" style="shape=partialRectangle;connectable=0;fillColor=none;top=0;left=0;bottom=0;right=0;align=left;spacingLeft=6;overflow=hidden;" parent="jWEvUl2-FtW43oLGLAhN-59" vertex="1">
          <mxGeometry x="30" width="299" height="30" as="geometry">
            <mxRectangle width="299" height="30" as="alternateBounds" />
          </mxGeometry>
        </mxCell>
        <mxCell id="jWEvUl2-FtW43oLGLAhN-62" value="TenantUser" style="shape=table;startSize=30;container=1;collapsible=1;childLayout=tableLayout;fixedRows=1;rowLines=0;fontStyle=1;align=center;resizeLast=1;fillColor=#e1d5e7;strokeColor=#9673a6;" parent="1" vertex="1">
          <mxGeometry x="1180" y="176" width="180" height="130" as="geometry" />
        </mxCell>
        <mxCell id="jWEvUl2-FtW43oLGLAhN-63" value="" style="shape=tableRow;horizontal=0;startSize=0;swimlaneHead=0;swimlaneBody=0;fillColor=none;collapsible=0;dropTarget=0;points=[[0,0.5],[1,0.5]];portConstraint=eastwest;top=0;left=0;right=0;bottom=1;" parent="jWEvUl2-FtW43oLGLAhN-62" vertex="1">
          <mxGeometry y="30" width="180" height="30" as="geometry" />
        </mxCell>
        <mxCell id="jWEvUl2-FtW43oLGLAhN-64" value="PK" style="shape=partialRectangle;connectable=0;fillColor=none;top=0;left=0;bottom=0;right=0;fontStyle=1;overflow=hidden;" parent="jWEvUl2-FtW43oLGLAhN-63" vertex="1">
          <mxGeometry width="30" height="30" as="geometry">
            <mxRectangle width="30" height="30" as="alternateBounds" />
          </mxGeometry>
        </mxCell>
        <mxCell id="jWEvUl2-FtW43oLGLAhN-65" value="id : Int" style="shape=partialRectangle;connectable=0;fillColor=none;top=0;left=0;bottom=0;right=0;align=left;spacingLeft=6;fontStyle=5;overflow=hidden;" parent="jWEvUl2-FtW43oLGLAhN-63" vertex="1">
          <mxGeometry x="30" width="150" height="30" as="geometry">
            <mxRectangle width="150" height="30" as="alternateBounds" />
          </mxGeometry>
        </mxCell>
        <mxCell id="jWEvUl2-FtW43oLGLAhN-66" value="" style="shape=tableRow;horizontal=0;startSize=0;swimlaneHead=0;swimlaneBody=0;fillColor=none;collapsible=0;dropTarget=0;points=[[0,0.5],[1,0.5]];portConstraint=eastwest;top=0;left=0;right=0;bottom=0;" parent="jWEvUl2-FtW43oLGLAhN-62" vertex="1">
          <mxGeometry y="60" width="180" height="30" as="geometry" />
        </mxCell>
        <mxCell id="jWEvUl2-FtW43oLGLAhN-67" value="FK" style="shape=partialRectangle;connectable=0;fillColor=none;top=0;left=0;bottom=0;right=0;editable=1;overflow=hidden;fontStyle=1" parent="jWEvUl2-FtW43oLGLAhN-66" vertex="1">
          <mxGeometry width="30" height="30" as="geometry">
            <mxRectangle width="30" height="30" as="alternateBounds" />
          </mxGeometry>
        </mxCell>
        <mxCell id="jWEvUl2-FtW43oLGLAhN-68" value="id_tenant : int" style="shape=partialRectangle;connectable=0;fillColor=none;top=0;left=0;bottom=0;right=0;align=left;spacingLeft=6;overflow=hidden;fontStyle=1" parent="jWEvUl2-FtW43oLGLAhN-66" vertex="1">
          <mxGeometry x="30" width="150" height="30" as="geometry">
            <mxRectangle width="150" height="30" as="alternateBounds" />
          </mxGeometry>
        </mxCell>
        <mxCell id="jWEvUl2-FtW43oLGLAhN-69" value="" style="shape=tableRow;horizontal=0;startSize=0;swimlaneHead=0;swimlaneBody=0;fillColor=none;collapsible=0;dropTarget=0;points=[[0,0.5],[1,0.5]];portConstraint=eastwest;top=0;left=0;right=0;bottom=0;" parent="jWEvUl2-FtW43oLGLAhN-62" vertex="1">
          <mxGeometry y="90" width="180" height="30" as="geometry" />
        </mxCell>
        <mxCell id="jWEvUl2-FtW43oLGLAhN-70" value="" style="shape=partialRectangle;connectable=0;fillColor=none;top=0;left=0;bottom=0;right=0;editable=1;overflow=hidden;" parent="jWEvUl2-FtW43oLGLAhN-69" vertex="1">
          <mxGeometry width="30" height="30" as="geometry">
            <mxRectangle width="30" height="30" as="alternateBounds" />
          </mxGeometry>
        </mxCell>
        <mxCell id="jWEvUl2-FtW43oLGLAhN-71" value="email : String" style="shape=partialRectangle;connectable=0;fillColor=none;top=0;left=0;bottom=0;right=0;align=left;spacingLeft=6;overflow=hidden;" parent="jWEvUl2-FtW43oLGLAhN-69" vertex="1">
          <mxGeometry x="30" width="150" height="30" as="geometry">
            <mxRectangle width="150" height="30" as="alternateBounds" />
          </mxGeometry>
        </mxCell>
        <mxCell id="jWEvUl2-FtW43oLGLAhN-72" value="TenantLicense" style="shape=table;startSize=30;container=1;collapsible=1;childLayout=tableLayout;fixedRows=1;rowLines=0;fontStyle=1;align=center;resizeLast=1;fillColor=#e1d5e7;strokeColor=#9673a6;" parent="1" vertex="1">
          <mxGeometry x="156" y="135" width="230" height="190" as="geometry" />
        </mxCell>
        <mxCell id="jWEvUl2-FtW43oLGLAhN-73" value="" style="shape=tableRow;horizontal=0;startSize=0;swimlaneHead=0;swimlaneBody=0;fillColor=none;collapsible=0;dropTarget=0;points=[[0,0.5],[1,0.5]];portConstraint=eastwest;top=0;left=0;right=0;bottom=1;" parent="jWEvUl2-FtW43oLGLAhN-72" vertex="1">
          <mxGeometry y="30" width="230" height="30" as="geometry" />
        </mxCell>
        <mxCell id="jWEvUl2-FtW43oLGLAhN-74" value="PK" style="shape=partialRectangle;connectable=0;fillColor=none;top=0;left=0;bottom=0;right=0;fontStyle=1;overflow=hidden;" parent="jWEvUl2-FtW43oLGLAhN-73" vertex="1">
          <mxGeometry width="30" height="30" as="geometry">
            <mxRectangle width="30" height="30" as="alternateBounds" />
          </mxGeometry>
        </mxCell>
        <mxCell id="jWEvUl2-FtW43oLGLAhN-75" value="id : Int" style="shape=partialRectangle;connectable=0;fillColor=none;top=0;left=0;bottom=0;right=0;align=left;spacingLeft=6;fontStyle=5;overflow=hidden;" parent="jWEvUl2-FtW43oLGLAhN-73" vertex="1">
          <mxGeometry x="30" width="200" height="30" as="geometry">
            <mxRectangle width="200" height="30" as="alternateBounds" />
          </mxGeometry>
        </mxCell>
        <mxCell id="jWEvUl2-FtW43oLGLAhN-76" value="" style="shape=tableRow;horizontal=0;startSize=0;swimlaneHead=0;swimlaneBody=0;fillColor=none;collapsible=0;dropTarget=0;points=[[0,0.5],[1,0.5]];portConstraint=eastwest;top=0;left=0;right=0;bottom=0;" parent="jWEvUl2-FtW43oLGLAhN-72" vertex="1">
          <mxGeometry y="60" width="230" height="30" as="geometry" />
        </mxCell>
        <mxCell id="jWEvUl2-FtW43oLGLAhN-77" value="" style="shape=partialRectangle;connectable=0;fillColor=none;top=0;left=0;bottom=0;right=0;editable=1;overflow=hidden;" parent="jWEvUl2-FtW43oLGLAhN-76" vertex="1">
          <mxGeometry width="30" height="30" as="geometry">
            <mxRectangle width="30" height="30" as="alternateBounds" />
          </mxGeometry>
        </mxCell>
        <mxCell id="jWEvUl2-FtW43oLGLAhN-78" value="date_start : datetime" style="shape=partialRectangle;connectable=0;fillColor=none;top=0;left=0;bottom=0;right=0;align=left;spacingLeft=6;overflow=hidden;" parent="jWEvUl2-FtW43oLGLAhN-76" vertex="1">
          <mxGeometry x="30" width="200" height="30" as="geometry">
            <mxRectangle width="200" height="30" as="alternateBounds" />
          </mxGeometry>
        </mxCell>
        <mxCell id="jWEvUl2-FtW43oLGLAhN-79" value="" style="shape=tableRow;horizontal=0;startSize=0;swimlaneHead=0;swimlaneBody=0;fillColor=none;collapsible=0;dropTarget=0;points=[[0,0.5],[1,0.5]];portConstraint=eastwest;top=0;left=0;right=0;bottom=0;" parent="jWEvUl2-FtW43oLGLAhN-72" vertex="1">
          <mxGeometry y="90" width="230" height="30" as="geometry" />
        </mxCell>
        <mxCell id="jWEvUl2-FtW43oLGLAhN-80" value="" style="shape=partialRectangle;connectable=0;fillColor=none;top=0;left=0;bottom=0;right=0;editable=1;overflow=hidden;" parent="jWEvUl2-FtW43oLGLAhN-79" vertex="1">
          <mxGeometry width="30" height="30" as="geometry">
            <mxRectangle width="30" height="30" as="alternateBounds" />
          </mxGeometry>
        </mxCell>
        <mxCell id="jWEvUl2-FtW43oLGLAhN-81" value="date_expiration : datetime" style="shape=partialRectangle;connectable=0;fillColor=none;top=0;left=0;bottom=0;right=0;align=left;spacingLeft=6;overflow=hidden;" parent="jWEvUl2-FtW43oLGLAhN-79" vertex="1">
          <mxGeometry x="30" width="200" height="30" as="geometry">
            <mxRectangle width="200" height="30" as="alternateBounds" />
          </mxGeometry>
        </mxCell>
        <mxCell id="jWEvUl2-FtW43oLGLAhN-82" value="" style="shape=tableRow;horizontal=0;startSize=0;swimlaneHead=0;swimlaneBody=0;fillColor=none;collapsible=0;dropTarget=0;points=[[0,0.5],[1,0.5]];portConstraint=eastwest;top=0;left=0;right=0;bottom=0;" parent="jWEvUl2-FtW43oLGLAhN-72" vertex="1">
          <mxGeometry y="120" width="230" height="30" as="geometry" />
        </mxCell>
        <mxCell id="jWEvUl2-FtW43oLGLAhN-83" value="" style="shape=partialRectangle;connectable=0;fillColor=none;top=0;left=0;bottom=0;right=0;editable=1;overflow=hidden;" parent="jWEvUl2-FtW43oLGLAhN-82" vertex="1">
          <mxGeometry width="30" height="30" as="geometry">
            <mxRectangle width="30" height="30" as="alternateBounds" />
          </mxGeometry>
        </mxCell>
        <mxCell id="jWEvUl2-FtW43oLGLAhN-84" value="max_users : int" style="shape=partialRectangle;connectable=0;fillColor=none;top=0;left=0;bottom=0;right=0;align=left;spacingLeft=6;overflow=hidden;" parent="jWEvUl2-FtW43oLGLAhN-82" vertex="1">
          <mxGeometry x="30" width="200" height="30" as="geometry">
            <mxRectangle width="200" height="30" as="alternateBounds" />
          </mxGeometry>
        </mxCell>
        <mxCell id="jWEvUl2-FtW43oLGLAhN-85" value="" style="shape=tableRow;horizontal=0;startSize=0;swimlaneHead=0;swimlaneBody=0;fillColor=none;collapsible=0;dropTarget=0;points=[[0,0.5],[1,0.5]];portConstraint=eastwest;top=0;left=0;right=0;bottom=0;" parent="jWEvUl2-FtW43oLGLAhN-72" vertex="1">
          <mxGeometry y="150" width="230" height="30" as="geometry" />
        </mxCell>
        <mxCell id="jWEvUl2-FtW43oLGLAhN-86" value="FK" style="shape=partialRectangle;connectable=0;fillColor=none;top=0;left=0;bottom=0;right=0;editable=1;overflow=hidden;fontStyle=1" parent="jWEvUl2-FtW43oLGLAhN-85" vertex="1">
          <mxGeometry width="30" height="30" as="geometry">
            <mxRectangle width="30" height="30" as="alternateBounds" />
          </mxGeometry>
        </mxCell>
        <mxCell id="jWEvUl2-FtW43oLGLAhN-87" value="id_tenant : int" style="shape=partialRectangle;connectable=0;fillColor=none;top=0;left=0;bottom=0;right=0;align=left;spacingLeft=6;overflow=hidden;fontStyle=1" parent="jWEvUl2-FtW43oLGLAhN-85" vertex="1">
          <mxGeometry x="30" width="200" height="30" as="geometry">
            <mxRectangle width="200" height="30" as="alternateBounds" />
          </mxGeometry>
        </mxCell>
        <mxCell id="jWEvUl2-FtW43oLGLAhN-88" value="Audit" style="shape=table;startSize=30;container=1;collapsible=1;childLayout=tableLayout;fixedRows=1;rowLines=0;fontStyle=1;align=center;resizeLast=1;fillColor=#e1d5e7;strokeColor=#9673a6;shadow=0;sketch=0;rounded=0;" parent="1" vertex="1">
          <mxGeometry x="1165" y="451" width="180" height="250" as="geometry" />
        </mxCell>
        <mxCell id="jWEvUl2-FtW43oLGLAhN-89" value="" style="shape=tableRow;horizontal=0;startSize=0;swimlaneHead=0;swimlaneBody=0;fillColor=none;collapsible=0;dropTarget=0;points=[[0,0.5],[1,0.5]];portConstraint=eastwest;top=0;left=0;right=0;bottom=1;" parent="jWEvUl2-FtW43oLGLAhN-88" vertex="1">
          <mxGeometry y="30" width="180" height="30" as="geometry" />
        </mxCell>
        <mxCell id="jWEvUl2-FtW43oLGLAhN-90" value="PK" style="shape=partialRectangle;connectable=0;fillColor=none;top=0;left=0;bottom=0;right=0;fontStyle=1;overflow=hidden;" parent="jWEvUl2-FtW43oLGLAhN-89" vertex="1">
          <mxGeometry width="30" height="30" as="geometry">
            <mxRectangle width="30" height="30" as="alternateBounds" />
          </mxGeometry>
        </mxCell>
        <mxCell id="jWEvUl2-FtW43oLGLAhN-91" value="id : int" style="shape=partialRectangle;connectable=0;fillColor=none;top=0;left=0;bottom=0;right=0;align=left;spacingLeft=6;fontStyle=5;overflow=hidden;" parent="jWEvUl2-FtW43oLGLAhN-89" vertex="1">
          <mxGeometry x="30" width="150" height="30" as="geometry">
            <mxRectangle width="150" height="30" as="alternateBounds" />
          </mxGeometry>
        </mxCell>
        <mxCell id="jWEvUl2-FtW43oLGLAhN-92" value="" style="shape=tableRow;horizontal=0;startSize=0;swimlaneHead=0;swimlaneBody=0;fillColor=none;collapsible=0;dropTarget=0;points=[[0,0.5],[1,0.5]];portConstraint=eastwest;top=0;left=0;right=0;bottom=0;" parent="jWEvUl2-FtW43oLGLAhN-88" vertex="1">
          <mxGeometry y="60" width="180" height="30" as="geometry" />
        </mxCell>
        <mxCell id="jWEvUl2-FtW43oLGLAhN-93" value="FK" style="shape=partialRectangle;connectable=0;fillColor=none;top=0;left=0;bottom=0;right=0;editable=1;overflow=hidden;fontStyle=1" parent="jWEvUl2-FtW43oLGLAhN-92" vertex="1">
          <mxGeometry width="30" height="30" as="geometry">
            <mxRectangle width="30" height="30" as="alternateBounds" />
          </mxGeometry>
        </mxCell>
        <mxCell id="jWEvUl2-FtW43oLGLAhN-94" value="id_tenant_user : int" style="shape=partialRectangle;connectable=0;fillColor=none;top=0;left=0;bottom=0;right=0;align=left;spacingLeft=6;overflow=hidden;fontStyle=0" parent="jWEvUl2-FtW43oLGLAhN-92" vertex="1">
          <mxGeometry x="30" width="150" height="30" as="geometry">
            <mxRectangle width="150" height="30" as="alternateBounds" />
          </mxGeometry>
        </mxCell>
        <mxCell id="jWEvUl2-FtW43oLGLAhN-95" value="" style="shape=tableRow;horizontal=0;startSize=0;swimlaneHead=0;swimlaneBody=0;fillColor=none;collapsible=0;dropTarget=0;points=[[0,0.5],[1,0.5]];portConstraint=eastwest;top=0;left=0;right=0;bottom=0;" parent="jWEvUl2-FtW43oLGLAhN-88" vertex="1">
          <mxGeometry y="90" width="180" height="30" as="geometry" />
        </mxCell>
        <mxCell id="jWEvUl2-FtW43oLGLAhN-96" value="FK" style="shape=partialRectangle;connectable=0;fillColor=none;top=0;left=0;bottom=0;right=0;editable=1;overflow=hidden;fontStyle=1" parent="jWEvUl2-FtW43oLGLAhN-95" vertex="1">
          <mxGeometry width="30" height="30" as="geometry">
            <mxRectangle width="30" height="30" as="alternateBounds" />
          </mxGeometry>
        </mxCell>
        <mxCell id="jWEvUl2-FtW43oLGLAhN-97" value="id_tenant : int" style="shape=partialRectangle;connectable=0;fillColor=none;top=0;left=0;bottom=0;right=0;align=left;spacingLeft=6;overflow=hidden;fontStyle=1" parent="jWEvUl2-FtW43oLGLAhN-95" vertex="1">
          <mxGeometry x="30" width="150" height="30" as="geometry">
            <mxRectangle width="150" height="30" as="alternateBounds" />
          </mxGeometry>
        </mxCell>
        <mxCell id="jWEvUl2-FtW43oLGLAhN-98" value="" style="shape=tableRow;horizontal=0;startSize=0;swimlaneHead=0;swimlaneBody=0;fillColor=none;collapsible=0;dropTarget=0;points=[[0,0.5],[1,0.5]];portConstraint=eastwest;top=0;left=0;right=0;bottom=0;" parent="jWEvUl2-FtW43oLGLAhN-88" vertex="1">
          <mxGeometry y="120" width="180" height="30" as="geometry" />
        </mxCell>
        <mxCell id="jWEvUl2-FtW43oLGLAhN-99" value="FK" style="shape=partialRectangle;connectable=0;fillColor=none;top=0;left=0;bottom=0;right=0;editable=1;overflow=hidden;fontStyle=1" parent="jWEvUl2-FtW43oLGLAhN-98" vertex="1">
          <mxGeometry width="30" height="30" as="geometry">
            <mxRectangle width="30" height="30" as="alternateBounds" />
          </mxGeometry>
        </mxCell>
        <mxCell id="jWEvUl2-FtW43oLGLAhN-100" value="id_master_user : int" style="shape=partialRectangle;connectable=0;fillColor=none;top=0;left=0;bottom=0;right=0;align=left;spacingLeft=6;overflow=hidden;fontStyle=0" parent="jWEvUl2-FtW43oLGLAhN-98" vertex="1">
          <mxGeometry x="30" width="150" height="30" as="geometry">
            <mxRectangle width="150" height="30" as="alternateBounds" />
          </mxGeometry>
        </mxCell>
        <mxCell id="jWEvUl2-FtW43oLGLAhN-101" value="" style="shape=tableRow;horizontal=0;startSize=0;swimlaneHead=0;swimlaneBody=0;fillColor=none;collapsible=0;dropTarget=0;points=[[0,0.5],[1,0.5]];portConstraint=eastwest;top=0;left=0;right=0;bottom=0;" parent="jWEvUl2-FtW43oLGLAhN-88" vertex="1">
          <mxGeometry y="150" width="180" height="30" as="geometry" />
        </mxCell>
        <mxCell id="jWEvUl2-FtW43oLGLAhN-102" value="" style="shape=partialRectangle;connectable=0;fillColor=none;top=0;left=0;bottom=0;right=0;editable=1;overflow=hidden;" parent="jWEvUl2-FtW43oLGLAhN-101" vertex="1">
          <mxGeometry width="30" height="30" as="geometry">
            <mxRectangle width="30" height="30" as="alternateBounds" />
          </mxGeometry>
        </mxCell>
        <mxCell id="jWEvUl2-FtW43oLGLAhN-103" value="date : datetime" style="shape=partialRectangle;connectable=0;fillColor=none;top=0;left=0;bottom=0;right=0;align=left;spacingLeft=6;overflow=hidden;" parent="jWEvUl2-FtW43oLGLAhN-101" vertex="1">
          <mxGeometry x="30" width="150" height="30" as="geometry">
            <mxRectangle width="150" height="30" as="alternateBounds" />
          </mxGeometry>
        </mxCell>
        <mxCell id="jWEvUl2-FtW43oLGLAhN-104" value="" style="shape=tableRow;horizontal=0;startSize=0;swimlaneHead=0;swimlaneBody=0;fillColor=none;collapsible=0;dropTarget=0;points=[[0,0.5],[1,0.5]];portConstraint=eastwest;top=0;left=0;right=0;bottom=0;" parent="jWEvUl2-FtW43oLGLAhN-88" vertex="1">
          <mxGeometry y="180" width="180" height="30" as="geometry" />
        </mxCell>
        <mxCell id="jWEvUl2-FtW43oLGLAhN-105" value="" style="shape=partialRectangle;connectable=0;fillColor=none;top=0;left=0;bottom=0;right=0;editable=1;overflow=hidden;" parent="jWEvUl2-FtW43oLGLAhN-104" vertex="1">
          <mxGeometry width="30" height="30" as="geometry">
            <mxRectangle width="30" height="30" as="alternateBounds" />
          </mxGeometry>
        </mxCell>
        <mxCell id="jWEvUl2-FtW43oLGLAhN-106" value="operation : string" style="shape=partialRectangle;connectable=0;fillColor=none;top=0;left=0;bottom=0;right=0;align=left;spacingLeft=6;overflow=hidden;" parent="jWEvUl2-FtW43oLGLAhN-104" vertex="1">
          <mxGeometry x="30" width="150" height="30" as="geometry">
            <mxRectangle width="150" height="30" as="alternateBounds" />
          </mxGeometry>
        </mxCell>
        <mxCell id="jWEvUl2-FtW43oLGLAhN-107" value="" style="shape=tableRow;horizontal=0;startSize=0;swimlaneHead=0;swimlaneBody=0;fillColor=none;collapsible=0;dropTarget=0;points=[[0,0.5],[1,0.5]];portConstraint=eastwest;top=0;left=0;right=0;bottom=0;" parent="jWEvUl2-FtW43oLGLAhN-88" vertex="1">
          <mxGeometry y="210" width="180" height="30" as="geometry" />
        </mxCell>
        <mxCell id="jWEvUl2-FtW43oLGLAhN-108" value="" style="shape=partialRectangle;connectable=0;fillColor=none;top=0;left=0;bottom=0;right=0;editable=1;overflow=hidden;" parent="jWEvUl2-FtW43oLGLAhN-107" vertex="1">
          <mxGeometry width="30" height="30" as="geometry">
            <mxRectangle width="30" height="30" as="alternateBounds" />
          </mxGeometry>
        </mxCell>
        <mxCell id="jWEvUl2-FtW43oLGLAhN-109" value="description : string" style="shape=partialRectangle;connectable=0;fillColor=none;top=0;left=0;bottom=0;right=0;align=left;spacingLeft=6;overflow=hidden;" parent="jWEvUl2-FtW43oLGLAhN-107" vertex="1">
          <mxGeometry x="30" width="150" height="30" as="geometry">
            <mxRectangle width="150" height="30" as="alternateBounds" />
          </mxGeometry>
        </mxCell>
        <mxCell id="jWEvUl2-FtW43oLGLAhN-110" value="User" style="shape=table;startSize=30;container=1;collapsible=1;childLayout=tableLayout;fixedRows=1;rowLines=0;fontStyle=1;align=center;resizeLast=1;fillColor=#e1d5e7;strokeColor=#9673a6;" parent="1" vertex="1">
          <mxGeometry x="920" y="696" width="180" height="340" as="geometry" />
        </mxCell>
        <mxCell id="jWEvUl2-FtW43oLGLAhN-111" value="" style="shape=tableRow;horizontal=0;startSize=0;swimlaneHead=0;swimlaneBody=0;fillColor=none;collapsible=0;dropTarget=0;points=[[0,0.5],[1,0.5]];portConstraint=eastwest;top=0;left=0;right=0;bottom=1;" parent="jWEvUl2-FtW43oLGLAhN-110" vertex="1">
          <mxGeometry y="30" width="180" height="30" as="geometry" />
        </mxCell>
        <mxCell id="jWEvUl2-FtW43oLGLAhN-112" value="PK" style="shape=partialRectangle;connectable=0;fillColor=none;top=0;left=0;bottom=0;right=0;fontStyle=1;overflow=hidden;" parent="jWEvUl2-FtW43oLGLAhN-111" vertex="1">
          <mxGeometry width="30" height="30" as="geometry">
            <mxRectangle width="30" height="30" as="alternateBounds" />
          </mxGeometry>
        </mxCell>
        <mxCell id="jWEvUl2-FtW43oLGLAhN-113" value="id : int" style="shape=partialRectangle;connectable=0;fillColor=none;top=0;left=0;bottom=0;right=0;align=left;spacingLeft=6;fontStyle=5;overflow=hidden;" parent="jWEvUl2-FtW43oLGLAhN-111" vertex="1">
          <mxGeometry x="30" width="150" height="30" as="geometry">
            <mxRectangle width="150" height="30" as="alternateBounds" />
          </mxGeometry>
        </mxCell>
        <mxCell id="jWEvUl2-FtW43oLGLAhN-114" value="" style="shape=tableRow;horizontal=0;startSize=0;swimlaneHead=0;swimlaneBody=0;fillColor=none;collapsible=0;dropTarget=0;points=[[0,0.5],[1,0.5]];portConstraint=eastwest;top=0;left=0;right=0;bottom=0;" parent="jWEvUl2-FtW43oLGLAhN-110" vertex="1">
          <mxGeometry y="60" width="180" height="30" as="geometry" />
        </mxCell>
        <mxCell id="jWEvUl2-FtW43oLGLAhN-115" value="" style="shape=partialRectangle;connectable=0;fillColor=none;top=0;left=0;bottom=0;right=0;editable=1;overflow=hidden;" parent="jWEvUl2-FtW43oLGLAhN-114" vertex="1">
          <mxGeometry width="30" height="30" as="geometry">
            <mxRectangle width="30" height="30" as="alternateBounds" />
          </mxGeometry>
        </mxCell>
        <mxCell id="jWEvUl2-FtW43oLGLAhN-116" value="email : string" style="shape=partialRectangle;connectable=0;fillColor=none;top=0;left=0;bottom=0;right=0;align=left;spacingLeft=6;overflow=hidden;" parent="jWEvUl2-FtW43oLGLAhN-114" vertex="1">
          <mxGeometry x="30" width="150" height="30" as="geometry">
            <mxRectangle width="150" height="30" as="alternateBounds" />
          </mxGeometry>
        </mxCell>
        <mxCell id="jWEvUl2-FtW43oLGLAhN-117" value="" style="shape=tableRow;horizontal=0;startSize=0;swimlaneHead=0;swimlaneBody=0;fillColor=none;collapsible=0;dropTarget=0;points=[[0,0.5],[1,0.5]];portConstraint=eastwest;top=0;left=0;right=0;bottom=0;" parent="jWEvUl2-FtW43oLGLAhN-110" vertex="1">
          <mxGeometry y="90" width="180" height="30" as="geometry" />
        </mxCell>
        <mxCell id="jWEvUl2-FtW43oLGLAhN-118" value="" style="shape=partialRectangle;connectable=0;fillColor=none;top=0;left=0;bottom=0;right=0;editable=1;overflow=hidden;" parent="jWEvUl2-FtW43oLGLAhN-117" vertex="1">
          <mxGeometry width="30" height="30" as="geometry">
            <mxRectangle width="30" height="30" as="alternateBounds" />
          </mxGeometry>
        </mxCell>
        <mxCell id="jWEvUl2-FtW43oLGLAhN-119" value="password : string" style="shape=partialRectangle;connectable=0;fillColor=none;top=0;left=0;bottom=0;right=0;align=left;spacingLeft=6;overflow=hidden;" parent="jWEvUl2-FtW43oLGLAhN-117" vertex="1">
          <mxGeometry x="30" width="150" height="30" as="geometry">
            <mxRectangle width="150" height="30" as="alternateBounds" />
          </mxGeometry>
        </mxCell>
        <mxCell id="jWEvUl2-FtW43oLGLAhN-120" value="" style="shape=tableRow;horizontal=0;startSize=0;swimlaneHead=0;swimlaneBody=0;fillColor=none;collapsible=0;dropTarget=0;points=[[0,0.5],[1,0.5]];portConstraint=eastwest;top=0;left=0;right=0;bottom=0;" parent="jWEvUl2-FtW43oLGLAhN-110" vertex="1">
          <mxGeometry y="120" width="180" height="30" as="geometry" />
        </mxCell>
        <mxCell id="jWEvUl2-FtW43oLGLAhN-121" value="" style="shape=partialRectangle;connectable=0;fillColor=none;top=0;left=0;bottom=0;right=0;editable=1;overflow=hidden;" parent="jWEvUl2-FtW43oLGLAhN-120" vertex="1">
          <mxGeometry width="30" height="30" as="geometry">
            <mxRectangle width="30" height="30" as="alternateBounds" />
          </mxGeometry>
        </mxCell>
        <mxCell id="jWEvUl2-FtW43oLGLAhN-122" value="name : string" style="shape=partialRectangle;connectable=0;fillColor=none;top=0;left=0;bottom=0;right=0;align=left;spacingLeft=6;overflow=hidden;" parent="jWEvUl2-FtW43oLGLAhN-120" vertex="1">
          <mxGeometry x="30" width="150" height="30" as="geometry">
            <mxRectangle width="150" height="30" as="alternateBounds" />
          </mxGeometry>
        </mxCell>
        <mxCell id="jWEvUl2-FtW43oLGLAhN-123" value="" style="shape=tableRow;horizontal=0;startSize=0;swimlaneHead=0;swimlaneBody=0;fillColor=none;collapsible=0;dropTarget=0;points=[[0,0.5],[1,0.5]];portConstraint=eastwest;top=0;left=0;right=0;bottom=0;" parent="jWEvUl2-FtW43oLGLAhN-110" vertex="1">
          <mxGeometry y="150" width="180" height="30" as="geometry" />
        </mxCell>
        <mxCell id="jWEvUl2-FtW43oLGLAhN-124" value="" style="shape=partialRectangle;connectable=0;fillColor=none;top=0;left=0;bottom=0;right=0;editable=1;overflow=hidden;" parent="jWEvUl2-FtW43oLGLAhN-123" vertex="1">
          <mxGeometry width="30" height="30" as="geometry">
            <mxRectangle width="30" height="30" as="alternateBounds" />
          </mxGeometry>
        </mxCell>
        <mxCell id="jWEvUl2-FtW43oLGLAhN-125" value="lastname : string" style="shape=partialRectangle;connectable=0;fillColor=none;top=0;left=0;bottom=0;right=0;align=left;spacingLeft=6;overflow=hidden;" parent="jWEvUl2-FtW43oLGLAhN-123" vertex="1">
          <mxGeometry x="30" width="150" height="30" as="geometry">
            <mxRectangle width="150" height="30" as="alternateBounds" />
          </mxGeometry>
        </mxCell>
        <mxCell id="jWEvUl2-FtW43oLGLAhN-126" value="" style="shape=tableRow;horizontal=0;startSize=0;swimlaneHead=0;swimlaneBody=0;fillColor=none;collapsible=0;dropTarget=0;points=[[0,0.5],[1,0.5]];portConstraint=eastwest;top=0;left=0;right=0;bottom=0;" parent="jWEvUl2-FtW43oLGLAhN-110" vertex="1">
          <mxGeometry y="180" width="180" height="30" as="geometry" />
        </mxCell>
        <mxCell id="jWEvUl2-FtW43oLGLAhN-127" value="" style="shape=partialRectangle;connectable=0;fillColor=none;top=0;left=0;bottom=0;right=0;editable=1;overflow=hidden;" parent="jWEvUl2-FtW43oLGLAhN-126" vertex="1">
          <mxGeometry width="30" height="30" as="geometry">
            <mxRectangle width="30" height="30" as="alternateBounds" />
          </mxGeometry>
        </mxCell>
        <mxCell id="jWEvUl2-FtW43oLGLAhN-128" value="profile : string" style="shape=partialRectangle;connectable=0;fillColor=none;top=0;left=0;bottom=0;right=0;align=left;spacingLeft=6;overflow=hidden;" parent="jWEvUl2-FtW43oLGLAhN-126" vertex="1">
          <mxGeometry x="30" width="150" height="30" as="geometry">
            <mxRectangle width="150" height="30" as="alternateBounds" />
          </mxGeometry>
        </mxCell>
        <mxCell id="jWEvUl2-FtW43oLGLAhN-129" value="" style="shape=tableRow;horizontal=0;startSize=0;swimlaneHead=0;swimlaneBody=0;fillColor=none;collapsible=0;dropTarget=0;points=[[0,0.5],[1,0.5]];portConstraint=eastwest;top=0;left=0;right=0;bottom=0;" parent="jWEvUl2-FtW43oLGLAhN-110" vertex="1">
          <mxGeometry y="210" width="180" height="30" as="geometry" />
        </mxCell>
        <mxCell id="jWEvUl2-FtW43oLGLAhN-130" value="" style="shape=partialRectangle;connectable=0;fillColor=none;top=0;left=0;bottom=0;right=0;editable=1;overflow=hidden;" parent="jWEvUl2-FtW43oLGLAhN-129" vertex="1">
          <mxGeometry width="30" height="30" as="geometry">
            <mxRectangle width="30" height="30" as="alternateBounds" />
          </mxGeometry>
        </mxCell>
        <mxCell id="jWEvUl2-FtW43oLGLAhN-131" value="level : string" style="shape=partialRectangle;connectable=0;fillColor=none;top=0;left=0;bottom=0;right=0;align=left;spacingLeft=6;overflow=hidden;" parent="jWEvUl2-FtW43oLGLAhN-129" vertex="1">
          <mxGeometry x="30" width="150" height="30" as="geometry">
            <mxRectangle width="150" height="30" as="alternateBounds" />
          </mxGeometry>
        </mxCell>
        <mxCell id="jWEvUl2-FtW43oLGLAhN-132" value="" style="shape=tableRow;horizontal=0;startSize=0;swimlaneHead=0;swimlaneBody=0;fillColor=none;collapsible=0;dropTarget=0;points=[[0,0.5],[1,0.5]];portConstraint=eastwest;top=0;left=0;right=0;bottom=0;" parent="jWEvUl2-FtW43oLGLAhN-110" vertex="1">
          <mxGeometry y="240" width="180" height="30" as="geometry" />
        </mxCell>
        <mxCell id="jWEvUl2-FtW43oLGLAhN-133" value="" style="shape=partialRectangle;connectable=0;fillColor=none;top=0;left=0;bottom=0;right=0;editable=1;overflow=hidden;" parent="jWEvUl2-FtW43oLGLAhN-132" vertex="1">
          <mxGeometry width="30" height="30" as="geometry">
            <mxRectangle width="30" height="30" as="alternateBounds" />
          </mxGeometry>
        </mxCell>
        <mxCell id="jWEvUl2-FtW43oLGLAhN-134" value="created_at : datetime" style="shape=partialRectangle;connectable=0;fillColor=none;top=0;left=0;bottom=0;right=0;align=left;spacingLeft=6;overflow=hidden;" parent="jWEvUl2-FtW43oLGLAhN-132" vertex="1">
          <mxGeometry x="30" width="150" height="30" as="geometry">
            <mxRectangle width="150" height="30" as="alternateBounds" />
          </mxGeometry>
        </mxCell>
        <mxCell id="jWEvUl2-FtW43oLGLAhN-135" value="" style="shape=tableRow;horizontal=0;startSize=0;swimlaneHead=0;swimlaneBody=0;fillColor=none;collapsible=0;dropTarget=0;points=[[0,0.5],[1,0.5]];portConstraint=eastwest;top=0;left=0;right=0;bottom=0;" parent="jWEvUl2-FtW43oLGLAhN-110" vertex="1">
          <mxGeometry y="270" width="180" height="30" as="geometry" />
        </mxCell>
        <mxCell id="jWEvUl2-FtW43oLGLAhN-136" value="" style="shape=partialRectangle;connectable=0;fillColor=none;top=0;left=0;bottom=0;right=0;editable=1;overflow=hidden;" parent="jWEvUl2-FtW43oLGLAhN-135" vertex="1">
          <mxGeometry width="30" height="30" as="geometry">
            <mxRectangle width="30" height="30" as="alternateBounds" />
          </mxGeometry>
        </mxCell>
        <mxCell id="jWEvUl2-FtW43oLGLAhN-137" value="updated_at : datetime" style="shape=partialRectangle;connectable=0;fillColor=none;top=0;left=0;bottom=0;right=0;align=left;spacingLeft=6;overflow=hidden;" parent="jWEvUl2-FtW43oLGLAhN-135" vertex="1">
          <mxGeometry x="30" width="150" height="30" as="geometry">
            <mxRectangle width="150" height="30" as="alternateBounds" />
          </mxGeometry>
        </mxCell>
        <mxCell id="jWEvUl2-FtW43oLGLAhN-138" value="" style="shape=tableRow;horizontal=0;startSize=0;swimlaneHead=0;swimlaneBody=0;fillColor=none;collapsible=0;dropTarget=0;points=[[0,0.5],[1,0.5]];portConstraint=eastwest;top=0;left=0;right=0;bottom=0;" parent="jWEvUl2-FtW43oLGLAhN-110" vertex="1">
          <mxGeometry y="300" width="180" height="30" as="geometry" />
        </mxCell>
        <mxCell id="jWEvUl2-FtW43oLGLAhN-139" value="" style="shape=partialRectangle;connectable=0;fillColor=none;top=0;left=0;bottom=0;right=0;editable=1;overflow=hidden;" parent="jWEvUl2-FtW43oLGLAhN-138" vertex="1">
          <mxGeometry width="30" height="30" as="geometry">
            <mxRectangle width="30" height="30" as="alternateBounds" />
          </mxGeometry>
        </mxCell>
        <mxCell id="jWEvUl2-FtW43oLGLAhN-140" value="active : int" style="shape=partialRectangle;connectable=0;fillColor=none;top=0;left=0;bottom=0;right=0;align=left;spacingLeft=6;overflow=hidden;" parent="jWEvUl2-FtW43oLGLAhN-138" vertex="1">
          <mxGeometry x="30" width="150" height="30" as="geometry">
            <mxRectangle width="150" height="30" as="alternateBounds" />
          </mxGeometry>
        </mxCell>
        <mxCell id="jWEvUl2-FtW43oLGLAhN-141" value="" style="endArrow=none;html=1;edgeStyle=orthogonalEdgeStyle;rounded=0;exitX=1;exitY=0.5;exitDx=0;exitDy=0;entryX=0;entryY=0.5;entryDx=0;entryDy=0;" parent="1" source="jWEvUl2-FtW43oLGLAhN-2" target="jWEvUl2-FtW43oLGLAhN-66" edge="1">
          <mxGeometry relative="1" as="geometry">
            <mxPoint x="920" y="206" as="sourcePoint" />
            <mxPoint x="1080" y="206" as="targetPoint" />
            <Array as="points">
              <mxPoint x="930" y="135" />
              <mxPoint x="930" y="246" />
              <mxPoint x="1180" y="246" />
            </Array>
          </mxGeometry>
        </mxCell>
        <mxCell id="jWEvUl2-FtW43oLGLAhN-142" value="&lt;font style=&quot;font-size: 17px;&quot;&gt;1&lt;/font&gt;" style="edgeLabel;resizable=0;html=1;align=left;verticalAlign=bottom;" parent="jWEvUl2-FtW43oLGLAhN-141" connectable="0" vertex="1">
          <mxGeometry x="-1" relative="1" as="geometry">
            <mxPoint x="4" y="1" as="offset" />
          </mxGeometry>
        </mxCell>
        <mxCell id="jWEvUl2-FtW43oLGLAhN-143" value="&lt;font style=&quot;font-size: 16px;&quot;&gt;1..*&lt;/font&gt;" style="edgeLabel;resizable=0;html=1;align=right;verticalAlign=bottom;" parent="jWEvUl2-FtW43oLGLAhN-141" connectable="0" vertex="1">
          <mxGeometry x="1" relative="1" as="geometry">
            <mxPoint x="-6" y="-7" as="offset" />
          </mxGeometry>
        </mxCell>
        <mxCell id="jWEvUl2-FtW43oLGLAhN-144" value="" style="endArrow=none;html=1;edgeStyle=orthogonalEdgeStyle;rounded=0;entryX=1;entryY=0.5;entryDx=0;entryDy=0;exitX=-0.004;exitY=0.833;exitDx=0;exitDy=0;exitPerimeter=0;" parent="1" source="jWEvUl2-FtW43oLGLAhN-2" target="jWEvUl2-FtW43oLGLAhN-73" edge="1">
          <mxGeometry relative="1" as="geometry">
            <mxPoint x="510" y="106" as="sourcePoint" />
            <mxPoint x="510.5" y="222" as="targetPoint" />
            <Array as="points">
              <mxPoint x="510" y="145" />
              <mxPoint x="460" y="146" />
              <mxPoint x="460" y="321" />
            </Array>
          </mxGeometry>
        </mxCell>
        <mxCell id="jWEvUl2-FtW43oLGLAhN-145" value="&lt;font style=&quot;font-size: 17px;&quot;&gt;1&lt;/font&gt;" style="edgeLabel;resizable=0;html=1;align=left;verticalAlign=bottom;" parent="jWEvUl2-FtW43oLGLAhN-144" connectable="0" vertex="1">
          <mxGeometry x="-1" relative="1" as="geometry">
            <mxPoint x="-19" as="offset" />
          </mxGeometry>
        </mxCell>
        <mxCell id="jWEvUl2-FtW43oLGLAhN-146" value="&lt;font style=&quot;font-size: 16px;&quot;&gt;1..*&lt;/font&gt;" style="edgeLabel;resizable=0;html=1;align=right;verticalAlign=bottom;" parent="jWEvUl2-FtW43oLGLAhN-144" connectable="0" vertex="1">
          <mxGeometry x="1" relative="1" as="geometry">
            <mxPoint x="33" y="31" as="offset" />
          </mxGeometry>
        </mxCell>
        <mxCell id="jWEvUl2-FtW43oLGLAhN-147" value="" style="endArrow=none;html=1;edgeStyle=orthogonalEdgeStyle;rounded=0;exitX=1;exitY=0.5;exitDx=0;exitDy=0;entryX=0;entryY=0.5;entryDx=0;entryDy=0;" parent="1" source="jWEvUl2-FtW43oLGLAhN-2" target="jWEvUl2-FtW43oLGLAhN-95" edge="1">
          <mxGeometry relative="1" as="geometry">
            <mxPoint x="988.684" y="614.99" as="sourcePoint" />
            <mxPoint x="1130" y="556" as="targetPoint" />
            <Array as="points">
              <mxPoint x="930" y="135" />
              <mxPoint x="930" y="556" />
            </Array>
          </mxGeometry>
        </mxCell>
        <mxCell id="jWEvUl2-FtW43oLGLAhN-148" value="&lt;font style=&quot;font-size: 19px;&quot;&gt;*&lt;/font&gt;" style="edgeLabel;resizable=0;html=1;align=right;verticalAlign=bottom;" parent="jWEvUl2-FtW43oLGLAhN-147" connectable="0" vertex="1">
          <mxGeometry x="1" relative="1" as="geometry">
            <mxPoint x="-9" y="-2" as="offset" />
          </mxGeometry>
        </mxCell>
        <mxCell id="jWEvUl2-FtW43oLGLAhN-149" value="" style="endArrow=none;html=1;edgeStyle=orthogonalEdgeStyle;rounded=0;exitX=1;exitY=0.5;exitDx=0;exitDy=0;entryX=1;entryY=0.5;entryDx=0;entryDy=0;" parent="1" source="jWEvUl2-FtW43oLGLAhN-63" target="jWEvUl2-FtW43oLGLAhN-89" edge="1">
          <mxGeometry relative="1" as="geometry">
            <mxPoint x="1370" y="226" as="sourcePoint" />
            <mxPoint x="1370" y="496" as="targetPoint" />
            <Array as="points">
              <mxPoint x="1411" y="221" />
              <mxPoint x="1411" y="496" />
            </Array>
          </mxGeometry>
        </mxCell>
        <mxCell id="jWEvUl2-FtW43oLGLAhN-150" value="&lt;font style=&quot;font-size: 17px;&quot;&gt;1&lt;/font&gt;" style="edgeLabel;resizable=0;html=1;align=left;verticalAlign=bottom;" parent="jWEvUl2-FtW43oLGLAhN-149" connectable="0" vertex="1">
          <mxGeometry x="-1" relative="1" as="geometry">
            <mxPoint x="4" y="1" as="offset" />
          </mxGeometry>
        </mxCell>
        <mxCell id="jWEvUl2-FtW43oLGLAhN-151" value="&lt;font style=&quot;font-size: 21px;&quot;&gt;*&lt;/font&gt;" style="edgeLabel;resizable=0;html=1;align=right;verticalAlign=bottom;" parent="jWEvUl2-FtW43oLGLAhN-149" connectable="0" vertex="1">
          <mxGeometry x="1" relative="1" as="geometry">
            <mxPoint x="20" y="1" as="offset" />
          </mxGeometry>
        </mxCell>
        <mxCell id="jWEvUl2-FtW43oLGLAhN-152" value="" style="endArrow=none;html=1;edgeStyle=orthogonalEdgeStyle;rounded=0;exitX=1;exitY=0.5;exitDx=0;exitDy=0;entryX=0;entryY=0.5;entryDx=0;entryDy=0;" parent="1" source="jWEvUl2-FtW43oLGLAhN-111" target="jWEvUl2-FtW43oLGLAhN-98" edge="1">
          <mxGeometry relative="1" as="geometry">
            <mxPoint x="1130" y="742" as="sourcePoint" />
            <mxPoint x="1090" y="576" as="targetPoint" />
            <Array as="points">
              <mxPoint x="1130" y="741" />
              <mxPoint x="1130" y="586" />
            </Array>
          </mxGeometry>
        </mxCell>
        <mxCell id="jWEvUl2-FtW43oLGLAhN-153" value="&lt;font style=&quot;font-size: 17px;&quot;&gt;1&lt;/font&gt;" style="edgeLabel;resizable=0;html=1;align=left;verticalAlign=bottom;" parent="jWEvUl2-FtW43oLGLAhN-152" connectable="0" vertex="1">
          <mxGeometry x="-1" relative="1" as="geometry">
            <mxPoint x="4" y="1" as="offset" />
          </mxGeometry>
        </mxCell>
        <mxCell id="jWEvUl2-FtW43oLGLAhN-154" value="&lt;font style=&quot;font-size: 19px;&quot;&gt;*&lt;/font&gt;" style="edgeLabel;resizable=0;html=1;align=right;verticalAlign=bottom;fontSize=19;" parent="jWEvUl2-FtW43oLGLAhN-152" connectable="0" vertex="1">
          <mxGeometry x="1" relative="1" as="geometry">
            <mxPoint x="-9" y="28" as="offset" />
          </mxGeometry>
        </mxCell>
      </root>
    </mxGraphModel>
  </diagram>
</mxfile>
